<?xml version="1.0" encoding="utf-8"?>
<!-- Generator: Adobe Illustrator 29.5.1, SVG Export Plug-In . SVG Version: 9.03 Build 0)  -->
<svg version="1.0" id="svg2" xmlns:svg="http://www.w3.org/2000/svg"
	 xmlns="http://www.w3.org/2000/svg" xmlns:xlink="http://www.w3.org/1999/xlink" x="0px" y="0px" viewBox="0 0 500 85"
	 style="enable-background:new 0 0 500 85;" xml:space="preserve">
<style type="text/css">
	.st0{fill:#FFFFFF;}
</style>
<g id="layer1" transform="translate(-15.233767,-25.187374)">
	<path id="path2425" class="st0" d="M25.22,48.6c0.67,0,1.14-0.14,1.42-0.41c0.28-0.27,0.41-0.74,0.41-1.41V35.35
		c0-1.06,0.39-1.93,1.18-2.64c0.79-0.7,1.81-1.06,3.07-1.06c1.26,0,2.31,0.36,3.16,1.08c0.85,0.72,1.27,1.59,1.27,2.61v11.08
		c0,0.98,0.1,1.58,0.3,1.82c0.2,0.23,0.67,0.35,1.42,0.35h12.1c1.46,0,2.59,0.34,3.4,1.03c0.81,0.68,1.21,1.65,1.21,2.9
		c0,1.41-0.43,2.44-1.3,3.11c-0.87,0.66-2.17,1-3.9,1H37.45c-0.63,0-1.07,0.24-1.33,0.73c-0.26,0.49-0.38,1.36-0.38,2.61v25.21
		c0,6.68,0.59,10.95,1.77,12.78c1.18,1.84,3.31,2.76,6.38,2.76c2.64,0,4.68-0.88,6.14-2.64c1.46-1.76,2.18-4.26,2.18-7.51
		c0-0.66-0.04-1.68-0.12-3.05c-0.08-1.37-0.12-2.38-0.12-3.05c0-1.84,0.34-3.23,1.03-4.19c0.69-0.96,1.7-1.44,3.04-1.44
		c1.81,0,3.09,0.6,3.84,1.79c0.75,1.19,1.12,3.31,1.12,6.36c0,7.08-1.54,12.49-4.61,16.24c-3.07,3.75-7.54,5.63-13.4,5.63
		c-5.83,0-10-1.48-12.52-4.43c-2.52-2.95-3.78-7.93-3.78-14.92V59.97c0-1.49-0.13-2.41-0.38-2.79c-0.26-0.37-0.7-0.56-1.33-0.56
		h-4.61c-1.42,0-2.45-0.32-3.1-0.97c-0.65-0.64-0.97-1.65-0.97-3.02c0-1.41,0.34-2.43,1.03-3.08c0.69-0.64,1.78-0.97,3.28-0.97
		C20.62,48.6,25.22,48.6,25.22,48.6z"/>
	<path id="path2423" class="st0" d="M74.78,46.08c0-5.94-0.45-9.51-1.34-10.7c-0.89-1.19-2.7-1.79-5.44-1.79h-3.59
		c-1.52,0-2.6-0.25-3.25-0.76c-0.65-0.51-0.97-1.35-0.97-2.52c0-1.21,0.39-2.15,1.17-2.81c0.78-0.66,1.91-1,3.39-1
		c0.08,0,0.75,0.06,2.02,0.18c1.27,0.12,2.53,0.18,3.79,0.18c2.73,0,5.47-0.1,8.2-0.29c0.49-0.04,0.8-0.06,0.91-0.06
		c1.44,0,2.42,0.3,2.93,0.91c0.51,0.61,0.77,2.06,0.77,4.37v25.21c2.51-3.28,5.29-5.69,8.34-7.21c3.06-1.52,6.58-2.29,10.56-2.29
		c7.9,0,13.6,2,17.11,6.01c3.51,4.01,5.27,10.49,5.27,19.44v19c0,3.67,0.35,5.97,1.05,6.89c0.7,0.92,2.19,1.38,4.47,1.38
		c0.46,0,1.02-0.06,1.68-0.18c0.66-0.12,1.11-0.18,1.34-0.18c1.59,0,2.81,0.34,3.64,1.03c0.84,0.68,1.25,1.71,1.25,3.08
		c0,1.29-0.35,2.21-1.05,2.76c-0.7,0.55-1.87,0.82-3.5,0.82c-0.42,0-2.01-0.16-4.78-0.47c-2.77-0.31-5.33-0.47-7.69-0.47
		c-2.81,0-5.73,0.16-8.77,0.47c-3.04,0.31-4.67,0.47-4.9,0.47c-1.33,0-2.35-0.32-3.07-0.97c-0.72-0.64-1.08-1.55-1.08-2.73
		c0-1.37,0.37-2.37,1.11-3.02c0.74-0.64,1.87-0.97,3.39-0.97c0.68,0,1.48,0.06,2.39,0.18c0.91,0.12,1.48,0.18,1.71,0.18
		c1.59,0,2.66-0.45,3.19-1.35c0.53-0.9,0.8-3.21,0.8-6.92V74.87c0-7.23-1.16-12.38-3.47-15.45c-2.32-3.07-6.13-4.6-11.45-4.6
		c-6.07,0-10.52,2.15-13.32,6.45c-2.81,4.3-4.21,11.12-4.21,20.46v10.2c0,3.71,0.27,6.02,0.8,6.92c0.53,0.9,1.59,1.35,3.19,1.35
		c0.23,0,0.81-0.06,1.74-0.18c0.93-0.12,1.72-0.18,2.36-0.18c1.52,0,2.64,0.32,3.36,0.97c0.72,0.64,1.08,1.65,1.08,3.02
		c0,1.21-0.35,2.13-1.05,2.76c-0.7,0.63-1.72,0.94-3.05,0.94c-0.23,0-1.86-0.16-4.9-0.47c-3.04-0.31-5.96-0.47-8.77-0.47
		c-2.32,0-4.87,0.16-7.66,0.47c-2.79,0.31-4.39,0.47-4.81,0.47c-1.63,0-2.8-0.27-3.5-0.82c-0.7-0.55-1.05-1.47-1.05-2.76
		c0-1.37,0.4-2.39,1.2-3.08c0.8-0.68,1.99-1.03,3.59-1.03c0.42,0,1,0.06,1.74,0.18c0.74,0.12,1.26,0.18,1.57,0.18
		c2.24,0,3.73-0.41,4.47-1.23c0.74-0.82,1.11-3.17,1.11-7.04C74.78,91.93,74.78,46.08,74.78,46.08z"/>
	<path id="path2421" class="st0" d="M163.72,46.66c-8.07,0-14.47,2.8-19.21,8.41c-4.74,5.61-7.09,13.16-7.09,22.66
		c0,9.54,2.35,17.11,7.09,22.72c4.74,5.61,11.14,8.44,19.21,8.44c4.53,0,8.43-0.76,11.69-2.25c3.25-1.49,6.05-3.78,8.41-6.91
		c1.52-2.07,2.73-4.16,3.64-6.25c0.91-2.09,1.38-3.84,1.38-5.25c0-1.21-0.39-2.2-1.15-3c-0.76-0.8-1.71-1.22-2.86-1.22
		c-1.79,0-3.25,1.61-4.43,4.81c-0.76,2.15-1.48,3.76-2.17,4.81c-1.79,2.62-3.79,4.51-5.98,5.69c-2.19,1.17-4.88,1.75-8.08,1.75
		c-5.25,0-9.46-1.98-12.64-5.97c-3.18-3.99-4.76-9.3-4.76-15.91v-0.34h34.93h2c2.21,0,3.67-0.37,4.43-1.16
		c0.76-0.78,1.15-2.35,1.15-4.66c0-8.01-2.32-14.4-6.96-19.19C177.7,49.06,171.49,46.66,163.72,46.66z M163.85,54.35
		c4.68,0,8.45,1.47,11.36,4.44c2.91,2.97,4.37,6.86,4.37,11.62v0.75h-32.24c0.49-5.2,2.24-9.3,5.19-12.31
		C155.48,55.84,159.25,54.35,163.85,54.35z"/>
	<path id="path2417" class="st0" d="M254.96,46.79c-8.31,0-14.9,2.77-19.77,8.34c-4.87,5.57-7.29,13.09-7.29,22.59
		c0,9.5,2.43,17.09,7.29,22.72c4.87,5.63,11.43,8.44,19.67,8.44c8.49,0,15.16-2.79,20.01-8.34c4.85-5.55,7.26-13.16,7.26-22.81
		c0-9.58-2.41-17.13-7.26-22.66C270.03,49.54,263.38,46.79,254.96,46.79L254.96,46.79z M255.08,54.48c5.75,0,10.28,2.05,13.54,6.16
		c3.27,4.1,4.9,9.78,4.9,17.09c0,7.23-1.65,12.91-4.93,17.03c-3.29,4.12-7.8,6.19-13.51,6.19c-5.93,0-10.51-2.01-13.73-6.03
		c-3.21-4.03-4.81-9.76-4.81-17.19c0-7.27,1.65-12.97,4.93-17.09C244.76,56.51,249.29,54.48,255.08,54.48L255.08,54.48z"/>
	<path id="path2413" class="st0" d="M299.38,56.05c-2.06,0.04-4.21,0.11-6.45,0.21c-2.24,0.1-3.45,0.15-3.64,0.15
		c-1.3,0-2.26-0.27-2.87-0.82c-0.61-0.55-0.92-1.41-0.92-2.58c0-1.17,0.41-2.1,1.23-2.79c0.82-0.68,1.94-1.03,3.35-1.03
		c0.15,0,1.09,0.06,2.81,0.18c1.72,0.12,3.36,0.18,4.93,0.18h1.55c0-0.27-0.02-0.67-0.06-1.2c-0.04-0.53-0.06-0.93-0.06-1.2
		c0-6.61,1.64-11.62,4.93-15.04c3.29-3.42,8.1-5.13,14.45-5.13c4.4,0,7.92,0.99,10.58,2.96c2.66,1.97,3.98,4.58,3.98,7.83
		c0,1.76-0.48,3.17-1.43,4.22c-0.96,1.06-2.24,1.58-3.84,1.58c-1.68,0-3.01-0.39-3.98-1.17c-0.97-0.78-1.46-1.84-1.46-3.17
		c0-0.47,0.09-1.12,0.26-1.96c0.17-0.84,0.26-1.44,0.26-1.79c0-0.55-0.36-0.96-1.09-1.23c-0.73-0.27-1.85-0.41-3.38-0.41
		c-3.48,0-6.12,1.08-7.91,3.22c-1.8,2.15-2.69,5.32-2.69,9.5c0,0.78,0.01,1.38,0.03,1.79c0.02,0.41,0.07,0.81,0.14,1.2
		c2.56,0,5.24-0.1,8.03-0.29c0.65-0.04,1.05-0.06,1.2-0.06c1.57,0,2.78,0.32,3.64,0.97c0.86,0.65,1.29,1.55,1.29,2.73
		c0,1.17-0.33,2.05-1,2.64c-0.67,0.59-1.69,0.88-3.07,0.88c-0.15,0-0.55-0.02-1.2-0.06c-2.98-0.2-5.87-0.29-8.66-0.29v36.24
		c0,3.67,0.29,5.97,0.86,6.89c0.57,0.92,1.76,1.38,3.55,1.38c0.15,0,0.75-0.06,1.78-0.18c1.03-0.12,1.97-0.18,2.81-0.18
		c1.72,0,2.97,0.32,3.76,0.97c0.78,0.64,1.18,1.65,1.18,3.02c0,1.21-0.38,2.13-1.15,2.76c-0.76,0.63-1.87,0.94-3.33,0.94
		c-0.27,0-2.04-0.16-5.33-0.47c-3.29-0.31-6.44-0.47-9.46-0.47c-2.56,0-5.26,0.16-8.08,0.47c-2.83,0.31-4.4,0.47-4.7,0.47
		c-1.64,0-2.84-0.28-3.58-0.85s-1.12-1.48-1.12-2.73c0-1.37,0.42-2.39,1.26-3.08c0.84-0.68,2.06-1.03,3.67-1.03
		c0.42,0,1,0.06,1.75,0.18c0.75,0.12,1.27,0.18,1.58,0.18c2.26,0,3.76-0.41,4.5-1.23c0.75-0.82,1.12-3.17,1.12-7.04L299.38,56.05
		L299.38,56.05z"/>
	<path id="path2411" class="st0" d="M341.65,56.05c-2.05,0.04-4.18,0.11-6.4,0.21c-2.22,0.1-3.42,0.15-3.61,0.15
		c-1.29,0-2.24-0.27-2.85-0.82c-0.61-0.55-0.91-1.41-0.91-2.58c0-1.17,0.41-2.1,1.22-2.79c0.82-0.68,1.93-1.03,3.33-1.03
		c0.15,0,1.08,0.06,2.79,0.18c1.71,0.12,3.34,0.18,4.89,0.18h1.54c0-0.27-0.02-0.67-0.06-1.2c-0.04-0.53-0.06-0.93-0.06-1.2
		c0-6.61,1.63-11.62,4.89-15.04c3.26-3.42,8.04-5.13,14.34-5.13c4.36,0,7.86,0.99,10.5,2.96c2.64,1.97,3.95,4.58,3.95,7.83
		c0,1.76-0.47,3.17-1.42,4.22c-0.95,1.06-2.22,1.58-3.81,1.58c-1.67,0-2.99-0.39-3.95-1.17c-0.97-0.78-1.45-1.84-1.45-3.17
		c0-0.47,0.09-1.12,0.26-1.96c0.17-0.84,0.26-1.44,0.26-1.79c0-0.55-0.36-0.96-1.08-1.23c-0.72-0.27-1.84-0.41-3.36-0.41
		c-3.45,0-6.07,1.08-7.85,3.22c-1.78,2.15-2.67,5.32-2.67,9.5c0,0.78,0.01,1.38,0.03,1.79c0.02,0.41,0.07,0.81,0.14,1.2
		c2.54,0,5.2-0.1,7.97-0.29c0.64-0.04,1.04-0.06,1.2-0.06c1.56,0,2.76,0.32,3.61,0.97c0.85,0.65,1.28,1.55,1.28,2.73
		c0,1.17-0.33,2.05-1,2.64c-0.66,0.59-1.68,0.88-3.04,0.88c-0.15,0-0.55-0.02-1.2-0.06c-2.96-0.2-5.82-0.29-8.59-0.29v36.24
		c0,3.67,0.28,5.97,0.85,6.89c0.57,0.92,1.75,1.38,3.53,1.38c0.15,0,0.74-0.06,1.76-0.18c1.02-0.12,1.95-0.18,2.79-0.18
		c1.71,0,2.95,0.32,3.73,0.97c0.78,0.64,1.17,1.65,1.17,3.02c0,1.21-0.38,2.13-1.14,2.76c-0.76,0.63-1.86,0.94-3.3,0.94
		c-0.27,0-2.03-0.16-5.29-0.47c-3.26-0.31-6.39-0.47-9.39-0.47c-2.54,0-5.22,0.16-8.02,0.47s-4.36,0.47-4.67,0.47
		c-1.63,0-2.82-0.28-3.56-0.85c-0.74-0.57-1.11-1.48-1.11-2.73c0-1.37,0.42-2.39,1.25-3.08c0.83-0.68,2.05-1.03,3.64-1.03
		c0.42,0,1,0.06,1.74,0.18c0.74,0.12,1.26,0.18,1.56,0.18c2.24,0,3.73-0.41,4.47-1.23c0.74-0.82,1.11-3.17,1.11-7.04L341.65,56.05
		L341.65,56.05z"/>
	<path id="path2409" class="st0" d="M384.71,92.29V68.36c0-5.51-0.36-8.94-1.09-10.29c-0.72-1.35-2.21-2.02-4.46-2.02h-4.02
		c-1.34,0-2.26-0.25-2.77-0.76c-0.51-0.51-0.76-1.39-0.76-2.64c0-1.06,0.37-1.95,1.11-2.7c0.74-0.74,1.66-1.11,2.74-1.11
		c0.22,0,1.04,0.06,2.47,0.18c1.43,0.12,2.76,0.18,3.99,0.18c2.06,0,4.22-0.1,6.47-0.29c0.54-0.04,0.87-0.06,0.98-0.06
		c1.52,0,2.54,0.29,3.04,0.88c0.51,0.59,0.76,1.93,0.76,4.05v38.52c0,3.6,0.34,5.89,1.01,6.89c0.67,1,2.07,1.5,4.21,1.5
		c0.47,0,1.01-0.06,1.63-0.18c0.62-0.12,1.05-0.18,1.3-0.18c1.56,0,2.73,0.33,3.5,1c0.78,0.66,1.17,1.66,1.17,2.99
		c0,1.29-0.34,2.21-1.01,2.76c-0.67,0.55-1.78,0.82-3.34,0.82c-0.43,0-1.96-0.16-4.56-0.47c-2.61-0.31-4.98-0.47-7.12-0.47
		c-4.02,0-8.1,0.25-12.22,0.76c-0.91,0.12-1.47,0.18-1.68,0.18c-1.59,0-2.73-0.28-3.42-0.85c-0.69-0.57-1.03-1.48-1.03-2.73
		c0-1.33,0.39-2.33,1.17-2.99c0.78-0.66,1.95-1,3.5-1c0.36,0,0.89,0.06,1.58,0.18c0.69,0.12,1.2,0.18,1.52,0.18
		c2.21,0,3.65-0.48,4.32-1.44C384.38,98.28,384.71,95.96,384.71,92.29L384.71,92.29z"/>
	<path id="path2407" class="st0" d="M380.68,36.57c0-1.84,0.61-3.38,1.84-4.63c1.23-1.25,2.75-1.88,4.55-1.88
		c1.73,0,3.18,0.63,4.35,1.88c1.17,1.25,1.76,2.79,1.76,4.63c0,1.76-0.6,3.26-1.79,4.51c-1.19,1.25-2.63,1.88-4.32,1.88
		c-1.81,0-3.32-0.62-4.55-1.85C381.3,39.88,380.68,38.37,380.68,36.57C380.68,36.57,380.68,36.57,380.68,36.57z"/>
	<path id="path2405" class="st0" d="M404.72,77.74c0-9.69,2.4-17.32,7.21-22.87c4.8-5.55,11.39-8.33,19.76-8.33
		c6.76,0,12.21,1.63,16.36,4.9c4.15,3.26,6.22,7.52,6.22,12.75c0,3.05-0.84,5.47-2.51,7.27c-1.67,1.8-3.93,2.7-6.79,2.7
		c-1.95,0-3.46-0.46-4.53-1.38c-1.07-0.92-1.6-2.22-1.6-3.9c0-1.13,0.28-2.17,0.84-3.11c0.56-0.94,1.35-1.7,2.36-2.29
		c0.19-0.12,0.47-0.23,0.84-0.35c0.83-0.35,1.24-0.88,1.24-1.58c0-1.88-1.14-3.57-3.43-5.07c-2.29-1.5-5.03-2.26-8.22-2.26
		c-5.93,0-10.54,2.14-13.82,6.42c-3.28,4.28-4.93,10.31-4.93,18.09c0,6.8,1.59,12.26,4.76,16.39c3.17,4.12,7.35,6.19,12.53,6.19
		c3.49,0,6.38-0.75,8.67-2.26c2.29-1.5,4.17-3.9,5.63-7.18c0.34-0.74,0.77-1.92,1.3-3.52c1.28-3.71,2.87-5.57,4.79-5.57
		c1.2,0,2.2,0.4,2.98,1.2c0.79,0.8,1.18,1.81,1.18,3.02c0,1.8-0.46,3.92-1.38,6.36c-0.92,2.44-2.11,4.64-3.58,6.6
		c-2.25,2.93-5.05,5.15-8.39,6.66c-3.34,1.5-7.19,2.26-11.54,2.26c-8,0-14.32-2.79-18.98-8.38
		C407.04,94.9,404.72,87.32,404.72,77.74L404.72,77.74L404.72,77.74z"/>
	<path id="path2403" class="st0" d="M488.06,47.02c-8.23,0-14.77,2.78-19.6,8.36c-4.84,5.58-7.24,13.08-7.24,22.53
		c0,9.48,2.4,17.01,7.24,22.59s11.37,8.39,19.6,8.39c4.62,0,8.61-0.76,11.93-2.24c3.32-1.48,6.17-3.76,8.58-6.87
		c1.55-2.06,2.79-4.13,3.72-6.21c0.93-2.08,1.41-3.82,1.41-5.22c0-1.2-0.4-2.19-1.17-2.98c-0.78-0.8-1.75-1.21-2.92-1.21
		c-1.83,0-3.32,1.6-4.52,4.78c-0.78,2.14-1.51,3.74-2.21,4.78c-1.83,2.6-3.87,4.49-6.1,5.65c-2.23,1.17-4.98,1.74-8.24,1.74
		c-5.36,0-9.66-1.97-12.9-5.93c-3.24-3.96-4.86-9.25-4.86-15.81v-0.34h35.66h2.04c2.25,0,3.75-0.37,4.52-1.15
		c0.78-0.78,1.17-2.34,1.17-4.63c0-7.97-2.37-14.32-7.1-19.08C502.32,49.41,495.98,47.02,488.06,47.02L488.06,47.02z M488.19,54.66
		c4.78,0,8.62,1.46,11.59,4.41c2.97,2.95,4.46,6.82,4.46,11.56v0.75h-32.91c0.5-5.17,2.28-9.25,5.29-12.24
		C479.64,56.15,483.49,54.66,488.19,54.66L488.19,54.66z"/>
</g>
</svg>
